<svg width="14" height="13" viewBox="0 0 14 13" fill="none" xmlns="http://www.w3.org/2000/svg">
<path d="M13.1891 4.51714L9.2219 3.94058L7.44847 0.345269C7.40003 0.246832 7.32034 0.167144 7.2219 0.118707C6.97503 -0.00316805 6.67503 0.0983945 6.55159 0.345269L4.77815 3.94058L0.810967 4.51714C0.701592 4.53277 0.601592 4.58433 0.525029 4.66246C0.432469 4.75759 0.381465 4.88558 0.383223 5.0183C0.384981 5.15103 0.439357 5.27762 0.534404 5.37027L3.40472 8.16871L2.72659 12.1203C2.71069 12.2122 2.72086 12.3067 2.75595 12.3932C2.79105 12.4796 2.84966 12.5545 2.92514 12.6093C3.00062 12.6641 3.08995 12.6967 3.183 12.7033C3.27605 12.71 3.3691 12.6904 3.45159 12.6468L7.00003 10.7812L10.5485 12.6468C10.6453 12.6984 10.7578 12.7156 10.8657 12.6968C11.1375 12.65 11.3203 12.3921 11.2735 12.1203L10.5953 8.16871L13.4657 5.37027C13.5438 5.29371 13.5953 5.19371 13.611 5.08433C13.6532 4.81089 13.4625 4.55777 13.1891 4.51714V4.51714Z" fill="#F38454"/>
</svg>
